<svg width="75" height="75" viewBox="0 0 75 75" fill="none" xmlns="http://www.w3.org/2000/svg">
    <path d="M50.8535 0.669395C47.147 1.96716 43.8628 4.29419 39.4056 8.63499C35.8867 12.1255 29.5997 19.4646 29.5997 20.1359C29.5997 20.2701 30.0689 20.4044 30.6789 20.4044C31.4765 20.4044 32.2741 19.6884 33.6816 17.8088C40.2501 8.90349 49.6806 1.60915 54.607 1.60915C57.2813 1.60915 59.3457 3.66768 60.0963 7.20297C60.7063 10.1118 60.5186 15.4371 59.6272 19.3751L59.0642 21.7469H55.2638C53.1525 21.7469 48.6484 22.0601 45.2234 22.4181C39.171 23.0894 39.0302 23.0894 35.1361 22.1049C32.0864 21.2994 30.022 21.0756 25.5648 21.0756C20.2162 21.0756 19.7939 21.1651 17.1196 22.4181C11.0203 25.4164 10.598 31.8605 15.9936 38.6626L17.8703 41.0344L16.0874 46.0464L14.3045 51.0585L12.7093 50.9242C9.89424 50.611 5.29629 49.0447 3.84184 47.8812C-0.333849 44.5696 2.71581 39.5128 12.1463 34.0533C12.1932 34.0085 12.0994 33.5163 11.8648 32.9793C11.4895 32.0395 11.4425 32.0395 8.7213 33.8743C-2.8205 41.4819 -2.91433 48.6419 8.48671 51.9535C12.0525 52.9827 23.3597 53.3407 29.5997 52.6247C34.2915 52.0877 34.3854 52.043 32.9309 51.4612C31.758 51.0137 29.6936 50.9242 23.9227 51.148L16.4158 51.4165L16.7443 50.1187C17.4949 47.1204 20.9669 38.6178 23.3127 34.1428C25.1895 30.6522 25.6586 29.3545 25.1425 29.3545C23.9227 29.3545 22.8436 30.7865 20.9199 34.8588C19.9347 37.0068 18.9494 38.7521 18.8086 38.7521C18.3395 38.7521 15.6182 34.993 15.1021 33.6953C14.6799 32.666 14.8206 32.5318 17.3073 31.4577C22.2336 29.3545 25.0018 28.4147 30.9604 26.9379C36.6374 25.4612 36.8251 25.4164 35.4645 24.8794C34.3854 24.4767 33.447 24.4319 31.5234 24.8347C30.1158 25.1032 28.896 25.2374 28.7552 25.1479C28.2391 24.6557 29.7405 23.0894 30.7727 23.0894C34.7138 23.0894 46.5371 28.191 51.5573 32.0843C55.0292 34.7245 55.0292 34.0533 51.0881 41.5714C49.2114 45.1962 48.0385 46.9414 47.2878 47.2099C46.7248 47.4337 43.9566 48.1497 41.1885 48.8209L36.1213 50.0292L31.8049 47.9707C29.4121 46.8519 25.9402 44.8382 24.1104 43.4956C22.2336 42.1531 20.6854 41.2134 20.6854 41.4371C20.6854 41.6161 20.5446 42.1084 20.4038 42.4664C19.747 44.0774 31.9456 50.7005 39.2648 52.7142C41.3292 53.296 43.0652 53.9225 43.1121 54.191C43.3936 55.0413 37.2943 62.1566 32.8371 66.2736C24.1573 74.1945 17.7764 75.4475 15.3836 69.7194C14.2576 66.9897 14.023 63.0964 14.7268 58.6661C15.196 55.7573 15.2429 54.549 14.8675 54.3253C13.3662 53.3855 12.4747 58.2633 12.8032 65.2891C13.1316 72.0465 15.4775 75 20.4508 75C27.16 74.9552 36.7782 66.9897 45.8802 53.9673C49.2114 49.179 49.0707 49.4475 47.4285 49.9845C46.6309 50.253 45.7395 50.8347 45.4111 51.2822C44.895 51.9982 44.5196 52.043 43.0182 51.7297C39.8748 51.0585 40.0155 50.9242 45.0826 49.716C50.5251 48.3734 60.0963 44.8829 60.0963 44.1669C60.0963 44.0326 59.9087 43.6299 59.721 43.3614C59.4395 42.9139 58.3604 43.1824 55.4515 44.3459C53.2933 45.2409 51.4165 45.8674 51.3227 45.7779C51.182 45.5989 55.5922 36.6041 56.1083 36.1566C56.5306 35.709 60.0494 41.5714 60.5655 43.6299C61.0347 45.5989 60.9878 46.0912 60.1433 47.9259C59.3457 49.6265 58.7826 50.1635 56.7183 51.0585C55.2169 51.685 53.0118 52.222 51.182 52.3115C48.7891 52.4905 48.0385 52.7142 47.5224 53.475C46.8655 54.37 46.9124 54.4148 49.3991 54.4148C50.7597 54.4148 53.1994 54.1015 54.7008 53.7435C59.9556 52.4457 62.5361 49.716 62.7238 45.3304C62.8176 43.2271 62.8176 43.2271 66.2426 41.0791C72.0135 37.4543 75.5792 32.8003 74.9224 29.6677C74.2186 26.2667 70.1368 23.6264 64.1313 22.5971C61.2224 22.1496 60.9878 22.0154 61.2224 21.1204C62.7238 15.3028 62.7238 7.60572 61.1285 4.20468C59.3926 0.400894 55.4515 -0.941628 50.8535 0.669395ZM27.723 22.8657C27.723 22.9999 27.2069 23.8502 26.5501 24.7899C25.5179 26.2667 24.6734 26.7589 20.0754 28.5042C17.2134 29.5782 14.6799 30.518 14.4922 30.6075C13.8353 30.876 14.1169 28.012 14.8206 26.6694C15.5244 25.3269 17.9641 23.7159 20.1223 23.0894C21.5299 22.6866 27.723 22.5076 27.723 22.8657ZM62.4422 24.1634C66.8056 24.9242 70.6059 26.4457 71.8258 27.9225C72.9049 29.2202 73.0457 31.592 72.1073 33.3373C71.0751 35.2168 66.4772 39.0206 62.583 41.1239C62.3015 41.3029 61.6446 40.6764 61.0347 39.5576C60.4717 38.5283 59.2987 36.8726 58.4542 35.8433L56.859 34.0085L58.4542 29.623C60.3779 24.5662 60.3779 24.4319 59.2049 24.4319C58.5011 24.4319 58.1258 25.0137 57.5159 26.9827C57.0936 28.4147 56.4368 30.2495 56.0614 31.0997L55.4046 32.5765L53.2933 30.9655C52.1203 30.0257 49.2583 28.2357 46.9124 26.8932L42.6898 24.5214L45.4111 24.2082C46.9124 24.0739 48.5546 23.8949 49.0707 23.8054C51.6042 23.4027 59.2987 23.6264 62.4422 24.1634Z" fill="#3568FF"/>
    <path d="M28.6857 32.2494C28.6857 34.4818 28.6736 37.6356 28.6574 39.2629L28.6331 42.2242L28.9328 42.2517C30.8444 42.4488 32.5656 43.1135 34.1168 44.2595C34.8782 44.8233 35.6517 45.5659 36.2066 46.2672C36.3767 46.4827 36.5306 46.6615 36.5508 46.6706C36.567 46.6798 36.5832 43.691 36.5832 40.0239V33.3633L36.2511 32.8591C35.8907 32.3136 34.9106 31.1722 34.457 30.7688C32.8127 29.3157 31.0023 28.4814 28.9409 28.2293L28.6857 28.1972V32.2494Z" fill="#B1CBFF"/>
    <path d="M45.0679 28.2378C43.2819 28.4761 41.6659 29.1362 40.3092 30.1768C39.4546 30.8369 38.4624 31.9004 37.867 32.7943L37.5146 33.3306V40.0049V46.6746L38.1748 45.932C38.8269 45.1893 39.3291 44.7172 39.9852 44.2405C41.4594 43.1541 43.1685 42.4756 44.9221 42.2785C45.153 42.2556 45.3555 42.2327 45.3757 42.2327C45.396 42.2327 45.4122 39.3081 45.4122 35.2192V28.2057L45.3028 28.2103C45.238 28.2148 45.1368 28.2286 45.0679 28.2378Z" fill="#B1CBFF"/>
    <path d="M27.1588 31.4971L26.6606 31.6667V38.8498C26.6606 42.8057 26.6768 46.0375 26.693 46.0375C26.7092 46.0375 26.9603 45.9779 27.2519 45.8999C28.3657 45.6157 28.8274 45.5607 30.2044 45.5561C31.2129 45.5561 31.5652 45.5745 31.9864 45.6387C32.9544 45.7945 33.9142 46.0558 34.7607 46.3996C34.947 46.4729 35.109 46.5279 35.1171 46.5188C35.1252 46.5142 34.9632 46.34 34.7566 46.1337C33.0111 44.3872 31.0023 43.4475 28.6776 43.2871C28.1956 43.255 28.0134 43.2275 27.9364 43.1679C27.7015 42.9937 27.7136 43.3329 27.7136 37.0758C27.7136 33.9128 27.7015 31.3229 27.6853 31.3274C27.665 31.3274 27.4301 31.4054 27.1588 31.4971Z" fill="#B1CBFF" fill-opacity="0.7"/>
    <path d="M46.3436 37.117V42.8607L46.2505 43.0165C46.133 43.2137 45.9629 43.2824 45.5741 43.2824C44.8046 43.2916 43.6828 43.5162 42.8201 43.8371C41.5403 44.3092 40.1876 45.2169 39.2359 46.2391L38.9119 46.5829L39.2521 46.4454C40.1755 46.0741 41.1556 45.8036 42.1924 45.6432C42.9295 45.524 44.7722 45.524 45.4931 45.6386C45.9022 45.7028 46.7243 45.8815 47.3076 46.0236L47.3967 46.0466V38.8726V31.6941L46.943 31.5291C46.696 31.442 46.457 31.3686 46.4165 31.3686C46.3477 31.3686 46.3436 31.5703 46.3436 37.117Z" fill="#B1CBFF" fill-opacity="0.7"/>
</svg>